# xmcd
#
# Track frame offsets: 
#        150
#        18025
#        35413
#        55435
#        72944
#        92451
#        109016
#        126482
#        133624
#        152908
#        169122
#        187569
#        204770
#        223953
#        242249
#
# Disc length: 3450 seconds
#
# Revision: 1
# Processed by: cddbd v1.5.2PL0 Copyright (c) Steve Scherf et al.
# Submitted via: ExactAudioCopy v1.0b3
#
DISCID=cb0d780f
DTITLE=Keyshia Cole - Just like You
DYEAR=2007
DGENRE=R&B
TTITLE0=Let It Go (feat. Missy Elliott and Lil' Kim)
TTITLE1=Didn't I Tell You (feat. Too $hort)
TTITLE2=Fallin' Out
TTITLE3=Give Me More
TTITLE4=I Remember
TTITLE5=Shoulda Let You Go (feat. Amina Harris)
TTITLE6=Heaven Sent
TTITLE7=Same Thing (Interlude)
TTITLE8=Go to Get My Heart Back
TTITLE9=Was It Worth It?
TTITLE10=Just like You
TTITLE11=Losing You (feat. Anthony Hamilton)
TTITLE12=Last Night (feat. Diddy)
TTITLE13=Work It Out
TTITLE14=Let It Go (Remix) (feat. T.I., Missy Elliott and Young Dro)
EXTD=
EXTT0=
EXTT1=
EXTT2=
EXTT3=
EXTT4=
EXTT5=
EXTT6=
EXTT7=
EXTT8=
EXTT9=
EXTT10=
EXTT11=
EXTT12=
EXTT13=
EXTT14=
PLAYORDER=
